<svg xmlns="http://www.w3.org/2000/svg" viewBox="0 0 42 42">
  <title>Chess Visualizer</title>
  <!--
    The queen in black. Nothing is painted
    behind her: the tab draws its own ground, and it differs between browsers
    and between light and dark, so leaving it alone is the only way to sit on
    whatever is actually there.
  -->
  <g transform="translate(-11,0.390704)">
    <path d="m 32,39.833295 q -2.208,0 -3.984,-0.24 -1.776,-0.192 -3.072,-0.528 -2.592,-0.72 -2.592,-2.016 l 0.144,-10.32 -4.416,-13.392 q -0.144,0.048 -0.384,0.096 -0.192,0 -0.48,0 -1.344,0 -2.304,-0.912 -0.912,-0.96 -0.912,-2.448 0,-1.3440001 0.96,-2.2560001 0.96,-0.912 2.304,-0.912 1.392,0 2.304,0.96 0.96,0.912 0.96,2.3040001 0,0.768 -0.384,1.584 -0.384,0.768 -1.056,1.152 l 6.288,10.608 -1.392,-14.0160001 h -0.096 q -1.248,0 -2.256,-0.96 -0.96,-0.96 -0.96,-2.304 0,-1.344 0.912,-2.304 0.96,-1.008 2.304,-1.008 1.344,0 2.304,0.96 1.008,0.912 1.008,2.304 0,1.056 -0.576,1.872 -0.528,0.816 -1.536,1.2 L 29.6,22.937295 31.424,7.8652949 q -1.104,-0.192 -1.92,-1.056 -0.768,-0.912 -0.768,-2.16 0,-1.392 0.96,-2.304 0.96,-0.96 2.304,-0.96 1.344,0 2.304,0.96 0.96,0.912 0.96,2.304 0,1.248 -0.816,2.16 -0.768,0.864 -1.872,1.056 L 34.4,22.937295 38.912,9.2572949 q -1.008,-0.384 -1.584,-1.2 -0.528,-0.816 -0.528,-1.872 0,-1.392 0.96,-2.304 1.008,-0.96 2.352,-0.96 1.392,0 2.304,1.008 0.912,0.96 0.912,2.304 0,1.344 -1.008,2.304 -0.96,0.96 -2.208,0.96 h -0.096 l -1.392,14.0160001 6.288,-10.608 q -0.624,-0.384 -1.056,-1.152 -0.384,-0.816 -0.384,-1.584 0,-1.3920001 0.912,-2.3040001 0.96,-0.96 2.352,-0.96 1.392,0 2.304,0.912 0.96,0.912 0.96,2.2560001 0,1.488 -0.96,2.448 -0.912,0.912 -2.256,0.912 -0.288,0 -0.528,0 -0.192,-0.048 -0.336,-0.096 l -4.416,13.392 0.144,10.32 q 0,1.344 -2.592,2.064 -2.592,0.72 -7.056,0.72 z M 31.136,5.5132949 q 0.528,0 0.864,-0.336 0.336,-0.384 0.336,-0.864 0,-0.528 -0.336,-0.864 -0.336,-0.336 -0.864,-0.336 -0.48,0 -0.864,0.336 -0.336,0.336 -0.336,0.864 0,0.48 0.336,0.864 0.384,0.336 0.864,0.336 z m -8.016,1.536 q 0.528,0 0.864,-0.336 0.336,-0.384 0.336,-0.864 0,-0.528 -0.336,-0.864 -0.336,-0.336 -0.864,-0.336 -0.48,0 -0.864,0.336 -0.336,0.336 -0.336,0.864 0,0.48 0.336,0.864 0.384,0.336 0.864,0.336 z m 16.08,0 q 0.528,0 0.864,-0.336 0.336,-0.384 0.336,-0.864 0,-0.528 -0.336,-0.864 -0.336,-0.336 -0.864,-0.336 -0.48,0 -0.864,0.336 -0.336,0.336 -0.336,0.864 0,0.48 0.336,0.864 0.384,0.336 0.864,0.336 z M 16.4,10.937295 q 0.528,0 0.864,-0.336 0.336,-0.384 0.336,-0.8640001 0,-0.528 -0.336,-0.864 -0.336,-0.336 -0.864,-0.336 -0.48,0 -0.864,0.336 -0.336,0.336 -0.336,0.864 0,0.4800001 0.336,0.8640001 0.384,0.336 0.864,0.336 z m 29.472,0 q 0.528,0 0.864,-0.336 0.336,-0.384 0.336,-0.8640001 0,-0.528 -0.336,-0.864 -0.336,-0.336 -0.864,-0.336 -0.48,0 -0.864,0.336 -0.336,0.336 -0.336,0.864 0,0.4800001 0.336,0.8640001 0.384,0.336 0.864,0.336 z m -21.84,18.912 q 3.024,-0.96 7.968,-0.96 2.112,0 4.32,0.24 2.208,0.192 3.696,0.72 v -0.864 q -0.576,-0.24 -2.016,-0.432 -1.392,-0.24 -3.072,-0.384 -1.632,-0.144 -2.928,-0.144 -1.344,0 -3.024,0.144 -1.632,0.144 -3.024,0.384 -1.344,0.192 -1.92,0.432 z m -0.048,2.88 q 3.024,-0.96 8.016,-0.96 2.016,0 4.272,0.24 2.256,0.24 3.792,0.72 v -0.864 q -0.528,-0.24 -1.968,-0.432 -1.392,-0.24 -3.072,-0.384 -1.68,-0.144 -3.024,-0.144 -1.296,0 -2.976,0.144 -1.632,0.144 -3.072,0.384 -1.392,0.192 -1.968,0.432 z m -0.048,2.784 q 1.296,-0.432 3.504,-0.624 2.208,-0.24 4.56,-0.24 2.304,0 4.56,0.24 2.304,0.192 3.552,0.624 v -0.768 q -0.576,-0.24 -1.968,-0.432 -1.392,-0.24 -3.072,-0.384 -1.68,-0.144 -3.072,-0.144 -1.344,0 -3.024,0.144 -1.632,0.144 -3.072,0.384 -1.392,0.192 -1.968,0.432 z" fill="#000000" />
  </g>
</svg>
