<svg xmlns="http://www.w3.org/2000/svg" viewBox="0 0 64 64">
  <!-- U+265D from Noto Sans Symbols2, drawn at 48 units in a square of 64. -->
  <path d="M15.34 44.89V40.23Q16.11 39.56 17.5 39.1Q18.9 38.65 20.58 38.65H27.49Q28.59 38.65 29.17 38.48Q29.74 38.31 29.74 37.54Q24.22 37.21 24.22 35.19Q24.22 34.9 24.37 34.62L26.05 30.3Q24.37 29.24 23.38 27.25Q22.4 25.26 22.4 23Q22.4 19.88 24.61 17.02Q26.82 14.17 30.66 12.01Q29.31 11.24 29.31 9.66Q29.31 8.55 30.1 7.76Q30.9 6.97 32 6.97Q33.1 6.97 33.9 7.76Q34.69 8.55 34.69 9.66Q34.69 11.24 33.34 12.01Q37.18 14.17 39.39 17.02Q41.6 19.88 41.6 23Q41.6 25.26 40.62 27.25Q39.63 29.24 37.95 30.3L39.63 34.62Q39.78 34.9 39.78 35.19Q39.78 37.21 34.26 37.54Q34.26 38.31 34.83 38.48Q35.41 38.65 36.51 38.65H43.42Q45.1 38.65 46.5 39.1Q47.89 39.56 48.66 40.23V44.89H47.46Q47.12 42.82 43.81 42.82H34.83Q32.72 42.82 32 41.53Q31.28 42.82 29.17 42.82H20.19Q16.88 42.82 16.54 44.89ZM31.18 28.52H32.82V19.98H36.66V18.44H32.82V14.6H31.18V18.44H27.34V19.98H31.18ZM27.34 33.27Q28.74 32.79 32 32.79Q35.26 32.79 36.66 33.27L35.94 31.5Q34.88 31.69 33.94 31.78Q33.01 31.88 32 31.88Q30.99 31.88 30.06 31.78Q29.12 31.69 28.06 31.5ZM32 36.01Q33.34 36.01 34.28 35.94Q35.22 35.86 35.84 35.77Q37.09 35.53 37.09 35.19Q37.09 34.86 35.74 34.57Q35.07 34.42 34.14 34.38Q33.2 34.33 32 34.33Q30.8 34.33 29.86 34.38Q28.93 34.42 28.26 34.57Q26.91 34.86 26.91 35.19Q26.91 35.53 28.16 35.77Q28.78 35.86 29.72 35.94Q30.66 36.01 32 36.01Z"/>
</svg>
